<?xml version="1.0" encoding="UTF-8" standalone="no"?>
<svg width="2048" height="2048" viewBox="0 0 1024 1024" xmlns="http://www.w3.org/2000/svg">
    <rect x="100" y="100" width="824" height="824" rx="185" ry="185" fill="#1d4ed8"/>
    <g transform="translate(512 512) scale(7.1) translate(-32 -32)" fill="#ffffff">
    <path d="M4,14 H16 V48 H35 V60 H4 Z"/>
    <path d="M 0,-9.2 C 1.4,-8.8 1.7,-7.0 1.6,-4.8 C 3.6,-4.4 6.8,-2.2 10.2,1.8 C 6.8,0.7 3.6,0.3 1.7,1.0 C 1.5,2.4 0.9,3.4 0,4.2 C -0.9,3.4 -1.5,2.4 -1.7,1.0 C -3.6,0.3 -6.8,0.7 -10.2,1.8 C -6.8,-2.2 -3.6,-4.4 -1.6,-4.8 C -1.7,-7.0 -1.4,-8.8 0,-9.2 Z" transform="translate(33 40) rotate(52) scale(1.55)"/>
    <path d="M 0,-9.2 C 1.4,-8.8 1.7,-7.0 1.6,-4.8 C 3.6,-4.4 6.8,-2.2 10.2,1.8 C 6.8,0.7 3.6,0.3 1.7,1.0 C 1.5,2.4 0.9,3.4 0,4.2 C -0.9,3.4 -1.5,2.4 -1.7,1.0 C -3.6,0.3 -6.8,0.7 -10.2,1.8 C -6.8,-2.2 -3.6,-4.4 -1.6,-4.8 C -1.7,-7.0 -1.4,-8.8 0,-9.2 Z" transform="translate(45 20) rotate(52) scale(1.55)"/>
    </g>
</svg>
